<?xml version="1.0" encoding="UTF-8" standalone="no"?>
<!-- Created with Inkscape (http://www.inkscape.org/) -->

<svg
   xmlns:dc="http://purl.org/dc/elements/1.1/"
   xmlns:cc="http://creativecommons.org/ns#"
   xmlns:rdf="http://www.w3.org/1999/02/22-rdf-syntax-ns#"
   xmlns:svg="http://www.w3.org/2000/svg"
   xmlns="http://www.w3.org/2000/svg"
   xmlns:sodipodi="http://sodipodi.sourceforge.net/DTD/sodipodi-0.dtd"
   xmlns:inkscape="http://www.inkscape.org/namespaces/inkscape"
   width="210mm"
   height="297mm"
   id="svg2"
   version="1.1"
   inkscape:version="0.48.2 r9819"
   sodipodi:docname="MAN.svg"
   inkscape:export-filename="F:\AirCraftAddon\c182\Models\Instruments\manpressfuelflow.png"
   inkscape:export-xdpi="90"
   inkscape:export-ydpi="90">
  <defs
     id="defs4">
    <inkscape:path-effect
       effect="bend_path"
       id="path-effect4110"
       is_visible="true"
       bendpath="m 298.98485,164.43809 c 0,-38.634 15.65952,-73.610522 40.97755,-98.928545 12.65901,-12.659012 27.73265,-22.903399 44.47078,-29.983032"
       prop_scale="1"
       scale_y_rel="false"
       vertical="false" />
    <inkscape:path-effect
       effect="bend_path"
       id="path-effect4102"
       is_visible="true"
       bendpath="m 307.06607,164.43809 c 0,-38.634 15.65952,-73.610522 40.97755,-98.928545 12.65901,-12.659012 27.73265,-22.903399 44.47078,-29.983032"
       prop_scale="1"
       scale_y_rel="false"
       vertical="false" />
    <inkscape:path-effect
       effect="ruler"
       id="path-effect4067"
       is_visible="true"
       unit="px"
       mark_distance="38.4"
       mark_length="28"
       minor_mark_length="21"
       major_mark_steps="5"
       shift="0"
       offset="0"
       mark_dir="left"
       border_marks="both" />
    <inkscape:path-effect
       effect="bend_path"
       id="path-effect4057"
       is_visible="true"
       bendpath="M 256.45048,293.54043 C 220.64537,260.4883 198.49947,214.8272 198.49947,164.39134"
       prop_scale="1"
       scale_y_rel="false"
       vertical="false" />
    <inkscape:path-effect
       effect="bend_path"
       id="path-effect4021"
       is_visible="true"
       bendpath="M 257.46064,293.54356 C 221.65553,260.5026 199.50963,214.85691 199.50963,164.43809"
       prop_scale="1"
       scale_y_rel="false"
       vertical="false" />
    <inkscape:path-effect
       effect="ruler"
       id="path-effect3985"
       is_visible="true"
       unit="px"
       mark_distance="28.8"
       mark_length="28"
       minor_mark_length="21"
       major_mark_steps="5"
       shift="0"
       offset="0"
       mark_dir="left"
       border_marks="both" />
    <inkscape:path-effect
       effect="bend_path"
       id="path-effect3971"
       is_visible="true"
       bendpath="m 97.302805,32.393473 c 33.417505,33.417506 54.086665,79.583367 54.086665,130.576747 0,50.9934 -20.66916,97.15926 -54.086665,130.57676"
       prop_scale="1"
       scale_y_rel="false"
       vertical="false" />
    <inkscape:path-effect
       effect="bend_path"
       id="path-effect3963"
       is_visible="true"
       bendpath="m 97.302805,32.393473 c 33.417505,33.417506 54.086665,79.583367 54.086665,130.576747 0,50.9934 -20.66916,97.15926 -54.086665,130.57676"
       prop_scale="1"
       scale_y_rel="false"
       vertical="false" />
    <inkscape:path-effect
       effect="ruler"
       id="path-effect3926"
       is_visible="true"
       unit="px"
       mark_distance="16.7"
       mark_length="28"
       minor_mark_length="21"
       major_mark_steps="5"
       shift="0"
       offset="0"
       mark_dir="left"
       border_marks="both" />
    <inkscape:path-effect
       effect="ruler"
       id="path-effect3918"
       is_visible="true"
       unit="px"
       mark_distance="20"
       mark_length="14"
       minor_mark_length="7"
       major_mark_steps="5"
       shift="0"
       offset="0"
       mark_dir="left"
       border_marks="both" />
    <inkscape:path-effect
       effect="ruler"
       id="path-effect3916"
       is_visible="true"
       unit="px"
       mark_distance="9.9"
       mark_length="14"
       minor_mark_length="7"
       major_mark_steps="5"
       shift="0"
       offset="0"
       mark_dir="left"
       border_marks="both" />
    <inkscape:path-effect
       effect="bend_path"
       id="path-effect3904"
       is_visible="true"
       bendpath="m 358.71729,340.28796 c -21.29639,-21.2964 -34.46848,-50.71709 -34.46848,-83.21429 0,-64.9944 52.68837,-117.68277 117.68277,-117.68277 64.9944,0 117.68277,52.68837 117.68277,117.68277 0,32.4972 -13.17209,61.91789 -34.46849,83.21429"
       prop_scale="1"
       scale_y_rel="false"
       vertical="false" />
    <inkscape:path-effect
       effect="bend_path"
       id="path-effect3878"
       is_visible="true"
       bendpath="m 358.71729,340.28796 c -21.29639,-21.2964 -34.46848,-50.71709 -34.46848,-83.21429 0,-64.9944 52.68837,-117.68277 117.68277,-117.68277 64.9944,0 117.68277,52.68837 117.68277,117.68277 0,32.4972 -13.17209,61.91789 -34.46849,83.21429"
       prop_scale="1"
       scale_y_rel="false"
       vertical="false" />
    <inkscape:path-effect
       effect="ruler"
       id="path-effect3850"
       is_visible="true"
       unit="px"
       mark_distance="11"
       mark_length="26"
       minor_mark_length="0"
       major_mark_steps="5"
       shift="0"
       offset="0"
       mark_dir="left"
       border_marks="both" />
    <inkscape:path-effect
       effect="bend_path"
       id="path-effect3834"
       is_visible="true"
       bendpath="m 95.955224,523.64886 268.408146,0"
       prop_scale="1"
       scale_y_rel="false"
       vertical="false" />
    <inkscape:path-effect
       effect="bend_path"
       id="path-effect3801"
       is_visible="true"
       bendpath="m 129.03429,65.14215 c 0,16.09809 -5.95356,30.80564 -15.77898,42.04097 M 16.25498,106.28135 C 6.38599,95.52645 1.25,80.81303 1.25,65.14215 m 0,0 C 1.25,29.85549 29.85549,1.25 65.14215,1.25 c 35.28665,0 63.89214,28.60549 63.89214,63.89215"
       prop_scale="1"
       scale_y_rel="false"
       vertical="false" />
    <inkscape:path-effect
       effect="ruler"
       id="path-effect2987"
       is_visible="true"
       unit="px"
       mark_distance="20"
       mark_length="20"
       minor_mark_length="11"
       major_mark_steps="5"
       shift="0"
       offset="0"
       mark_dir="left"
       border_marks="both" />
    <inkscape:path-effect
       effect="ruler"
       id="path-effect2987-1"
       is_visible="true"
       unit="px"
       mark_distance="20"
       mark_length="20"
       minor_mark_length="0"
       major_mark_steps="5"
       shift="0"
       offset="0"
       mark_dir="left"
       border_marks="both" />
    <inkscape:path-effect
       effect="ruler"
       id="path-effect3850-4"
       is_visible="true"
       unit="px"
       mark_distance="11"
       mark_length="26"
       minor_mark_length="13"
       major_mark_steps="5"
       shift="0"
       offset="0"
       mark_dir="left"
       border_marks="both" />
  </defs>
  <sodipodi:namedview
     id="base"
     pagecolor="#ffffff"
     bordercolor="#666666"
     borderopacity="1.0"
     inkscape:pageopacity="0.0"
     inkscape:pageshadow="2"
     inkscape:zoom="0.98994949"
     inkscape:cx="115.61801"
     inkscape:cy="888.10321"
     inkscape:document-units="px"
     inkscape:current-layer="layer1"
     showgrid="false"
     inkscape:window-width="1280"
     inkscape:window-height="968"
     inkscape:window-x="-4"
     inkscape:window-y="-4"
     inkscape:window-maximized="1"
     showguides="true"
     inkscape:guide-bbox="true">
    <sodipodi:guide
       orientation="0,1"
       position="213.57143,629.28571"
       id="guide3922" />
    <sodipodi:guide
       orientation="0,1"
       position="274.76149,1029.3454"
       id="guide3979" />
    <sodipodi:guide
       orientation="0,1"
       position="329.30973,749.53319"
       id="guide3981" />
    <sodipodi:guide
       orientation="0,1"
       position="271.22596,887.41901"
       id="guide4008" />
    <sodipodi:guide
       orientation="1,0"
       position="407.09148,1146.5231"
       id="guide4143" />
    <sodipodi:guide
       orientation="0,1"
       position="-55.55839,1112.178"
       id="guide4145" />
    <sodipodi:guide
       orientation="0,1"
       position="-85.862966,674.7819"
       id="guide4147" />
    <sodipodi:guide
       orientation="1,0"
       position="-49.497475,1029.3454"
       id="guide4151" />
    <sodipodi:guide
       orientation="1,0"
       position="62.629458,969.74644"
       id="guide4153" />
    <sodipodi:guide
       orientation="1,0"
       position="304.05592,920.24897"
       id="guide4155" />
    <sodipodi:guide
       orientation="0,1"
       position="330.31988,760.13979"
       id="guide4267" />
  </sodipodi:namedview>
  <metadata
     id="metadata7">
    <rdf:RDF>
      <cc:Work
         rdf:about="">
        <dc:format>image/svg+xml</dc:format>
        <dc:type
           rdf:resource="http://purl.org/dc/dcmitype/StillImage" />
        <dc:title></dc:title>
      </cc:Work>
    </rdf:RDF>
  </metadata>
  <g
     inkscape:label="Ebene 1"
     inkscape:groupmode="layer"
     id="layer1">
    <rect
       style="fill:#191919;fill-opacity:1;stroke:none"
       id="rect4149"
       width="456.58896"
       height="437.39609"
       x="-49.497475"
       y="-59.815819" />
    <path
       style="fill:none;stroke:#000000;stroke-width:3.78875566;stroke-linecap:butt;stroke-linejoin:miter;stroke-miterlimit:4;stroke-opacity:1;stroke-dasharray:none"
       d="M 87.926113,41.770165 106.6795,23.016781 m 12.66315,62.282397 23.64957,-11.974237 m -6.98632,63.129409 26.16077,-4.20719 m -26.25332,57.80793 26.14654,4.29546 m -42.979,46.80582 23.60984,12.05195 m -54.764616,30.96197 c 6.278267,6.22406 12.560866,12.44363 18.847786,18.6587"
       id="path3924"
       inkscape:connector-curvature="0"
       sodipodi:nodetypes="cccccccccccc"
       inkscape:path-effect="#path-effect3971"
       inkscape:original-d="m 130.97644,387.20977 0,-26.52129 m 79.09026,26.52129 0,-26.52129 m 79.09027,26.52129 0,-26.52129 m 79.09027,26.52129 0,-26.52129 m 79.09027,26.52129 0,-26.52129 m 78.24457,26.52129 -0.16914,-26.52129" />
    <path
       style="fill:none;stroke:#00ff00;stroke-width:15;stroke-linecap:butt;stroke-linejoin:miter;stroke-miterlimit:4;stroke-opacity:1;stroke-dasharray:none"
       d="m 124.24876,246.76553 c 13.40118,-26.5729 22.11992,-56.09371 20.70813,-89.39851"
       id="path4265"
       inkscape:connector-curvature="0"
       sodipodi:nodetypes="cc" />
    <path
       inkscape:connector-curvature="0"
       style="fill:none;stroke:#ffffff;stroke-width:1.89437783000000000;stroke-linecap:butt;stroke-linejoin:miter;stroke-miterlimit:4;stroke-opacity:1;stroke-dasharray:none"
       d="M 87.926113,41.770165 106.6795,23.016781 M 95.285719,49.614885 110.22828,36.50745 m -8.10377,21.424533 15.74854,-12.1202 m -9.44791,20.867833 16.48297,-11.103328 m -10.73781,20.23967 17.14584,-10.05682 m -11.97349,19.540046 23.64958,-11.974236 m -19.06736,21.762502 18.25696,-7.874892 m -14.28219,17.926382 18.70518,-6.739475 m -15.35521,17.012335 19.08186,-5.57441 m -16.37399,16.02683 19.38699,-4.37973 m -17.33857,14.96987 26.16077,-4.20719 m -24.78911,14.89321 19.7826,-1.90142 m -19.10504,12.64151 19.87308,-0.61782 m -19.89146,11.37223 19.87005,0.6872 m -20.58516,10.05105 19.77575,1.96922 m -21.18403,8.71274 26.14654,4.29547 m -28.23066,6.28836 19.37249,4.44435 m -22.11512,5.99954 19.06353,5.63745 m -22.44735,4.62463 18.68303,6.80093 m -22.69071,3.23754 18.23098,7.93476 m -22.84519,1.83826 23.60984,12.05195 m -28.81325,-2.58622 17.11221,10.11352 m -22.88751,-0.99689 16.44551,11.15844 m -22.77535,-2.43277 15.70725,12.17373 m -22.574321,-3.88084 14.897451,13.15939 m -21.697206,-5.567 c 6.218506,6.16422 12.441306,12.32399 18.668386,18.47931"
       id="path3924-9"
       sodipodi:nodetypes="cccccccccccccccccccccccccccccccccccccccccccccccccccc"
       inkscape:path-effect="#path-effect3963"
       inkscape:original-d="m 131.19864,386.57923 0,-26.52129 m 15.81805,26.52129 0,-19.89096 m 15.81806,19.89096 0,-19.89096 m 15.81805,19.89096 0,-19.89096 m 15.81805,19.89096 0,-19.89096 m 15.81806,19.89096 0,-26.52129 m 15.81805,26.52129 0,-19.89096 m 15.81806,19.89096 0,-19.89096 m 15.81805,19.89096 0,-19.89096 m 15.81805,19.89096 0,-19.89096 m 15.81806,19.89096 0,-26.52129 m 15.81805,26.52129 0,-19.89096 m 15.81806,19.89096 0,-19.89096 m 15.81805,19.89096 0,-19.89096 m 15.81805,19.89096 0,-19.89096 m 15.81806,19.89096 0,-26.52129 m 15.81805,26.52129 0,-19.89096 m 15.81806,19.89096 0,-19.89096 m 15.81805,19.89096 0,-19.89096 m 15.81805,19.89096 0,-19.89096 m 15.81806,19.89096 0,-26.52129 m 15.81805,26.52129 0,-19.89096 m 15.81806,19.89096 0,-19.89096 m 15.81805,19.89096 0,-19.89096 m 15.81805,19.89096 0,-19.89096 m 14.97235,19.63725 -0.16913,-26.26758" />
    <path
       style="fill:none;stroke:#00ff00;stroke-width:15;stroke-linecap:butt;stroke-linejoin:miter;stroke-miterlimit:4;stroke-opacity:1;stroke-dasharray:none"
       d="m 205.06097,164.94317 c 4.33106,52.401 22.30881,96.40403 61.6193,127.27922"
       id="path4269"
       inkscape:connector-curvature="0"
       sodipodi:nodetypes="cc" />
    <path
       style="fill:none;stroke:#ffffff;stroke-width:1.93173945;stroke-linecap:butt;stroke-linejoin:miter;stroke-miterlimit:4;stroke-opacity:1"
       d="m 266.31799,283.94521 -17.7147,19.1967 m 11.23669,-25.4942 -14.00974,13.7021 m 7.86279,-20.32 -14.6972,12.96307 m 8.90291,-19.88341 -15.3484,12.18044 m 9.92836,-19.38526 -15.96334,11.3542 m 10.93915,-18.82553 -22.05602,13.97913 m 13.2816,-29.64953 -17.5906,8.61383 m 10.63899,-25.12258 -18.45663,6.56641 m 13.41312,-23.76227 -19.0788,4.44378 m 16.00573,-22.09399 -19.45691,2.25953 m 18.4153,-20.22954 -26.12133,0"
       id="path3983"
       inkscape:connector-curvature="0"
       sodipodi:nodetypes="cccccccccccccccccccccc" />
    <path
       style="fill:none;stroke:#ffffff;stroke-width:3.86413145;stroke-linecap:butt;stroke-linejoin:miter;stroke-miterlimit:4;stroke-opacity:1"
       d="m 259.7566,276.11166 -17.72392,19.20018 m -5.60445,-45.9279 -22.06888,13.97533 m -3.46139,-98.96793 -25.46356,0"
       id="path3983-4"
       inkscape:connector-curvature="0"
       sodipodi:nodetypes="cccccc" />
    <path
       style="fill:none;stroke:#ffffff;stroke-width:1.84819198000000000;stroke-linecap:butt;stroke-linejoin:miter;stroke-miterlimit:4;stroke-opacity:1"
       d="m 208.59236,164.43809 -22.88565,0 m 24.88024,-25.43635 -16.81186,-4.33041 m 22.65693,-20.23646 -15.86624,-8.34672 M 225.80799,91.723712 211.48059,79.674787 M 238.3953,71.85445 226.19999,56.417432 m 27.63629,-0.941378 -12.84175,-24.214326 m 30.45331,11.962433 -6.68635,-20.207378"
       id="path4065"
       inkscape:connector-curvature="0" />
    <path
       inkscape:connector-curvature="0"
       style="fill:none;stroke:#ffffff;stroke-width:4.49808168000000030;stroke-linecap:butt;stroke-linejoin:miter;stroke-miterlimit:4;stroke-opacity:1;stroke-dasharray:none"
       d="M 255.08032,56.111224 241.67922,31.424496"
       id="path4065-8"
       sodipodi:nodetypes="cc" />
    <rect
       style="fill:#000000;fill-opacity:1;stroke:none;stroke-width:4;stroke-miterlimit:4;stroke-opacity:1;stroke-dasharray:none;stroke-dashoffset:0"
       id="rect4157"
       width="112.12693"
       height="437.39609"
       x="-49.497475"
       y="-59.815819" />
    <rect
       style="fill:#000000;fill-opacity:1;stroke:none"
       id="rect4159"
       width="103.03556"
       height="437.39609"
       x="304.05591"
       y="-59.815819" />
    <flowRoot
       xml:space="preserve"
       id="flowRoot4161"
       style="font-size:32px;font-style:normal;font-weight:bold;line-height:125%;letter-spacing:0px;word-spacing:0px;fill:#ffffff;fill-opacity:1;stroke:#ffffff;font-family:Arial;-inkscape-font-specification:Arial Bold;font-stretch:normal;font-variant:normal;text-anchor:middle;text-align:center;writing-mode:tb;stroke-opacity:1"><flowRegion
         id="flowRegion4163"><rect
           id="rect4165"
           width="83.842659"
           height="277.79196"
           x="-26.263966"
           y="24.026892"
           style="-inkscape-font-specification:Arial Bold;font-family:Arial;font-weight:bold;font-style:normal;font-stretch:normal;font-variant:normal;font-size:32px;text-anchor:middle;text-align:center;writing-mode:tb;line-height:125%;stroke:#ffffff;stroke-opacity:1;fill:#ffffff;fill-opacity:1" /></flowRegion><flowPara
         id="flowPara4175">PRESS</flowPara><flowPara
         id="flowPara4177">MAN</flowPara></flowRoot>    <flowRoot
       xml:space="preserve"
       id="flowRoot4179"
       style="font-size:32px;font-style:normal;font-variant:normal;font-weight:bold;font-stretch:normal;text-align:center;line-height:125%;letter-spacing:0px;word-spacing:0px;writing-mode:tb-rl;text-anchor:middle;fill:#ffffff;fill-opacity:1;stroke:#ffffff;stroke-width:1px;stroke-linecap:butt;stroke-linejoin:miter;stroke-opacity:1;font-family:Arial;-inkscape-font-specification:Arial Bold"
       transform="translate(-30.304576,1.0005926)"><flowRegion
         id="flowRegion4181"><rect
           id="rect4183"
           width="98.994949"
           height="274.76151"
           x="304.05591"
           y="26.047197"
           style="font-size:32px;font-style:normal;font-variant:normal;font-weight:bold;font-stretch:normal;text-align:center;line-height:125%;writing-mode:tb-rl;text-anchor:middle;fill:#ffffff;fill-opacity:1;stroke:#ffffff;stroke-opacity:1;font-family:Arial;-inkscape-font-specification:Arial Bold" /></flowRegion><flowPara
         id="flowPara4187">FLOW</flowPara><flowPara
         id="flowPara4189">FUEL</flowPara></flowRoot>    <flowRoot
       xml:space="preserve"
       id="flowRoot4191"
       style="font-size:20px;font-style:normal;font-variant:normal;font-weight:bold;font-stretch:normal;text-align:start;line-height:125%;letter-spacing:0px;word-spacing:0px;writing-mode:lr-tb;text-anchor:start;fill:#ffffff;fill-opacity:1;stroke:none;font-family:Arial;-inkscape-font-specification:Arial Bold"
       transform="translate(-64.651792,-57.578695)"><flowRegion
         id="flowRegion4193"><rect
           id="rect4195"
           width="68.690376"
           height="45.456863"
           x="127.27922"
           y="323.03204"
           style="font-size:20px;font-style:normal;font-variant:normal;font-weight:bold;font-stretch:normal;text-align:start;line-height:125%;writing-mode:lr-tb;text-anchor:start;fill:#ffffff;fill-opacity:1;font-family:Arial;-inkscape-font-specification:Arial Bold" /></flowRegion><flowPara
         id="flowPara4199">10</flowPara></flowRoot>    <flowRoot
       xml:space="preserve"
       id="flowRoot4201"
       style="font-size:20px;font-style:normal;font-variant:normal;font-weight:bold;font-stretch:normal;text-align:start;line-height:125%;letter-spacing:0px;word-spacing:0px;writing-mode:lr-tb;text-anchor:start;fill:#ffffff;fill-opacity:1;stroke:none;font-family:Arial;-inkscape-font-specification:Arial Bold"
       transform="translate(11.111678,19.192898)"><flowRegion
         id="flowRegion4203"><rect
           id="rect4205"
           width="82.832512"
           height="72.73098"
           x="76.771591"
           y="202.8239"
           style="font-size:20px;font-style:normal;font-variant:normal;font-weight:bold;font-stretch:normal;text-align:start;line-height:125%;writing-mode:lr-tb;text-anchor:start;fill:#ffffff;fill-opacity:1;font-family:Arial;-inkscape-font-specification:Arial Bold" /></flowRegion><flowPara
         id="flowPara4209">15</flowPara></flowRoot>    <g
       style="font-size:20px;font-style:normal;font-variant:normal;font-weight:bold;font-stretch:normal;text-align:start;line-height:125%;letter-spacing:0px;word-spacing:0px;writing-mode:lr-tb;text-anchor:start;fill:#ffffff;fill-opacity:1;stroke:none;font-family:Arial;-inkscape-font-specification:Arial Bold"
       id="flowRoot4211">
      <path
         d="m 115.16716,193.49571 0,2.54883 -9.61914,0 c 0.10416,-0.96354 0.41666,-1.87663 0.9375,-2.73926 0.52083,-0.86262 1.54947,-2.00683 3.08593,-3.43262 1.23698,-1.15233 1.99544,-1.93358 2.2754,-2.34375 0.37759,-0.56639 0.56639,-1.12629 0.5664,-1.67968 -1e-5,-0.61197 -0.16439,-1.08235 -0.49316,-1.41114 -0.32879,-0.32876 -0.78289,-0.49315 -1.36231,-0.49316 -0.57292,1e-5 -1.02865,0.17254 -1.36718,0.51758 -0.33855,0.34506 -0.53386,0.91798 -0.58594,1.71875 l -2.73438,-0.27344 c 0.16276,-1.5104 0.67383,-2.59439 1.53321,-3.25195 0.85937,-0.65754 1.93359,-0.98632 3.22265,-0.98633 1.41276,10e-6 2.52278,0.38087 3.33008,1.14258 0.80728,0.76173 1.21093,1.70899 1.21094,2.84179 -10e-6,0.64455 -0.11557,1.25815 -0.34668,1.84082 -0.23113,0.5827 -0.59734,1.19305 -1.09863,1.83106 -0.33204,0.42318 -0.931,1.03191 -1.79688,1.82617 -0.86589,0.79428 -1.41439,1.32162 -1.64551,1.58203 -0.23112,0.26042 -0.4183,0.51433 -0.56152,0.76172 z"
         id="path4222"
         inkscape:connector-curvature="0" />
      <path
         d="m 121.67106,181.66954 c 1.38672,10e-6 2.4707,0.49481 3.25196,1.48437 0.93098,1.17189 1.39647,3.11525 1.39648,5.83008 -1e-5,2.70834 -0.46876,4.65495 -1.40625,5.83985 -0.77475,0.97656 -1.85547,1.46484 -3.24219,1.46484 -1.39323,0 -2.51628,-0.53548 -3.36914,-1.60645 -0.85286,-1.07096 -1.27929,-2.98013 -1.27929,-5.72753 0,-2.69531 0.46874,-4.63541 1.40625,-5.82032 0.77473,-0.97655 1.85546,-1.46483 3.24218,-1.46484 z m 0,2.27539 c -0.33203,1e-5 -0.62826,0.10581 -0.88867,0.31738 -0.26042,0.2116 -0.46224,0.59083 -0.60547,1.1377 -0.1888,0.70964 -0.2832,1.9043 -0.2832,3.58398 0,1.6797 0.0846,2.83367 0.25391,3.46192 0.16926,0.62825 0.38248,1.04655 0.63964,1.25488 0.25716,0.20834 0.55176,0.3125 0.88379,0.3125 0.33203,0 0.62825,-0.10579 0.88868,-0.31738 0.26041,-0.21159 0.46223,-0.59082 0.60546,-1.1377 0.1888,-0.70312 0.2832,-1.89452 0.28321,-3.57422 -10e-6,-1.67968 -0.0846,-2.83365 -0.25391,-3.46191 -0.16928,-0.62825 -0.38249,-1.04817 -0.63965,-1.25977 -0.25716,-0.21157 -0.55176,-0.31737 -0.88379,-0.31738 z"
         id="path4224"
         inkscape:connector-curvature="0" />
      <path
         d="m 117.72585,141.74111 0,2.54883 -9.61914,0 c 0.10416,-0.96354 0.41666,-1.87663 0.9375,-2.73926 0.52083,-0.86262 1.54947,-2.00683 3.08593,-3.43262 1.23698,-1.15233 1.99544,-1.93358 2.27539,-2.34375 0.3776,-0.56639 0.5664,-1.12629 0.56641,-1.67968 -1e-5,-0.61197 -0.16439,-1.08235 -0.49316,-1.41114 -0.32879,-0.32876 -0.78289,-0.49315 -1.36231,-0.49316 -0.57292,1e-5 -1.02865,0.17254 -1.36719,0.51758 -0.33854,0.34506 -0.53385,0.91798 -0.58593,1.71875 l -2.73438,-0.27344 c 0.16276,-1.5104 0.67383,-2.59439 1.53321,-3.25195 0.85937,-0.65754 1.93359,-0.98632 3.22265,-0.98633 1.41276,1e-5 2.52278,0.38087 3.33008,1.14258 0.80728,0.76173 1.21093,1.70899 1.21094,2.84179 -10e-6,0.64455 -0.11557,1.25815 -0.34668,1.84082 -0.23113,0.5827 -0.59734,1.19305 -1.09864,1.83106 -0.33203,0.42318 -0.93099,1.03191 -1.79687,1.82617 -0.86589,0.79428 -1.41439,1.32162 -1.64551,1.58203 -0.23112,0.26042 -0.4183,0.51433 -0.56152,0.76172 z"
         id="path4226"
         inkscape:connector-curvature="0" />
      <path
         d="m 119.63014,140.6083 2.73438,-0.2832 c 0.0781,0.61849 0.30924,1.1084 0.69336,1.46972 0.38411,0.36133 0.82682,0.542 1.32812,0.54199 0.57291,10e-6 1.05794,-0.23274 1.45508,-0.69824 0.39713,-0.46549 0.5957,-1.16699 0.5957,-2.10449 0,-0.8789 -0.19694,-1.53808 -0.59082,-1.97754 -0.39388,-0.43944 -0.90658,-0.65917 -1.53808,-0.65918 -0.78777,1e-5 -1.49415,0.34832 -2.11914,1.04492 l -2.22656,-0.32226 1.40625,-7.45117 7.25585,0 0,2.56836 -5.17578,0 -0.42968,2.43164 c 0.61197,-0.30598 1.23697,-0.45898 1.875,-0.45899 1.21744,1e-5 2.24934,0.44272 3.0957,1.32813 0.84634,0.88542 1.26952,2.03451 1.26953,3.44726 -1e-5,1.17839 -0.34181,2.22982 -1.02539,3.1543 -0.931,1.26302 -2.22331,1.89453 -3.87695,1.89453 -1.32162,0 -2.39909,-0.35482 -3.23243,-1.06445 -0.83333,-0.70964 -1.33138,-1.66341 -1.49414,-2.86133 z"
         id="path4228"
         inkscape:connector-curvature="0" />
      <path
         d="m 92.736547,92.003787 2.65625,-0.32226 c 0.0846,0.67708 0.3125,1.19466 0.6836,1.55273 0.37109,0.35808 0.8203,0.53711 1.34765,0.53711 0.5664,0 1.04329,-0.21484 1.43067,-0.64453 0.38736,-0.42969 0.58104,-1.00911 0.58105,-1.73828 -1e-5,-0.6901 -0.18555,-1.23698 -0.55664,-1.64063 -0.3711,-0.40364 -0.82357,-0.60546 -1.35742,-0.60547 -0.35157,1e-5 -0.77149,0.0684 -1.25977,0.20508 l 0.30274,-2.23633 c 0.74218,0.0195 1.30859,-0.14159 1.69922,-0.4834 0.39062,-0.34178 0.58593,-0.79588 0.58593,-1.3623 0,-0.48176 -0.14323,-0.86587 -0.42968,-1.15234 -0.28647,-0.28645 -0.66733,-0.42968 -1.14258,-0.42969 -0.46876,1e-5 -0.86915,0.16277 -1.20117,0.48828 -0.33204,0.32553 -0.53386,0.80079 -0.60547,1.42578 l -2.5293,-0.42969 c 0.17578,-0.86587 0.44108,-1.5576 0.7959,-2.07519 0.35482,-0.51757 0.84961,-0.92447 1.48437,-1.2207 0.63477,-0.29621 1.34603,-0.44433 2.13379,-0.44434 1.34765,1e-5 2.42838,0.4297 3.242193,1.28906 0.67056,0.70314 1.00585,1.49741 1.00586,2.38281 -1e-5,1.25652 -0.68686,2.25913 -2.060553,3.00782 0.820313,0.17579 1.476233,0.56967 1.967783,1.18164 0.49152,0.61198 0.73729,1.35091 0.7373,2.21679 -1e-5,1.25652 -0.45899,2.32748 -1.37695,3.2129 -0.917983,0.88541 -2.060553,1.32812 -3.427743,1.32812 -1.29557,0 -2.36979,-0.37272 -3.22265,-1.11816 -0.85287,-0.74544 -1.34766,-1.72038 -1.48438,-2.92481 z"
         id="path4230"
         inkscape:connector-curvature="0" />
      <path
         d="m 108.60569,81.427617 c 1.38672,1e-5 2.4707,0.49481 3.25196,1.48437 0.93098,1.17189 1.39647,3.11525 1.39648,5.83008 -1e-5,2.70834 -0.46876,4.65495 -1.40625,5.83985 -0.77475,0.97656 -1.85547,1.46484 -3.24219,1.46484 -1.39323,0 -2.51628,-0.53548 -3.36914,-1.60645 -0.85286,-1.07096 -1.27929,-2.98013 -1.27929,-5.72753 0,-2.69531 0.46874,-4.63541 1.40625,-5.82032 0.77473,-0.97655 1.85546,-1.46483 3.24218,-1.46484 z m 0,2.27539 c -0.33203,1e-5 -0.62826,0.10581 -0.88867,0.31738 -0.26042,0.2116 -0.46224,0.59083 -0.60547,1.1377 -0.1888,0.70964 -0.2832,1.9043 -0.2832,3.58398 0,1.6797 0.0846,2.83367 0.25391,3.46192 0.16926,0.62825 0.38248,1.04655 0.63964,1.25488 0.25716,0.20834 0.55176,0.3125 0.88379,0.3125 0.33203,0 0.62825,-0.10579 0.88868,-0.31738 0.26041,-0.21159 0.46223,-0.59082 0.60546,-1.1377 0.1888,-0.70312 0.2832,-1.89452 0.28321,-3.57422 -10e-6,-1.67968 -0.0846,-2.83365 -0.25391,-3.46191 -0.16928,-0.62825 -0.38249,-1.04817 -0.63965,-1.25977 -0.25716,-0.21157 -0.55176,-0.31737 -0.88379,-0.31738 z"
         id="path4232"
         inkscape:connector-curvature="0" />
      <path
         d="m 62.424378,46.546923 2.65625,-0.32226 c 0.0846,0.67708 0.3125,1.19466 0.6836,1.55273 0.37109,0.35808 0.8203,0.53711 1.34765,0.53711 0.5664,0 1.04329,-0.21484 1.43067,-0.64453 0.38736,-0.42969 0.58104,-1.00911 0.58105,-1.73828 -1e-5,-0.6901 -0.18555,-1.23698 -0.55664,-1.64063 -0.3711,-0.40364 -0.82357,-0.60546 -1.35742,-0.60547 -0.35157,1e-5 -0.77149,0.0684 -1.25977,0.20508 l 0.30274,-2.23633 c 0.74218,0.0195 1.30859,-0.14159 1.69922,-0.4834 0.39062,-0.34178 0.58593,-0.79588 0.58593,-1.3623 0,-0.48176 -0.14323,-0.86587 -0.42968,-1.15234 -0.28647,-0.28645 -0.66733,-0.42968 -1.14258,-0.42969 -0.46876,10e-6 -0.86915,0.16277 -1.20117,0.48828 -0.33204,0.32553 -0.53386,0.80079 -0.60547,1.42578 l -2.5293,-0.42969 c 0.17578,-0.86587 0.44108,-1.5576 0.7959,-2.07519 0.35482,-0.51757 0.84961,-0.92447 1.48437,-1.2207 0.63477,-0.29621 1.34603,-0.44433 2.13379,-0.44434 1.34765,10e-6 2.42838,0.4297 3.24219,1.28906 0.67056,0.70314 1.00585,1.49741 1.00586,2.38281 -1e-5,1.25652 -0.68686,2.25913 -2.06055,3.00782 0.82031,0.17579 1.47623,0.56967 1.96778,1.18164 0.49152,0.61198 0.73729,1.35091 0.7373,2.21679 -1e-5,1.25652 -0.45899,2.32748 -1.37695,3.2129 -0.91798,0.88541 -2.06055,1.32812 -3.42774,1.32812 -1.29557,0 -2.36979,-0.37272 -3.22265,-1.11816 -0.85287,-0.74544 -1.34766,-1.72038 -1.48438,-2.92481 z"
         id="path4234"
         inkscape:connector-curvature="0" />
      <path
         d="m 73.693908,46.664113 2.73438,-0.2832 c 0.0781,0.61849 0.30924,1.1084 0.69336,1.46972 0.38411,0.36133 0.82682,0.542 1.32812,0.54199 0.57291,10e-6 1.05794,-0.23274 1.45508,-0.69824 0.39713,-0.46549 0.5957,-1.16699 0.5957,-2.10449 0,-0.8789 -0.19694,-1.53808 -0.59082,-1.97754 -0.39388,-0.43944 -0.90658,-0.65917 -1.53808,-0.65918 -0.78777,1e-5 -1.49415,0.34832 -2.11914,1.04492 l -2.22656,-0.32226 1.40625,-7.45117 7.25585,0 0,2.56836 -5.17578,0 -0.42968,2.43164 c 0.61197,-0.30598 1.23697,-0.45898 1.875,-0.45899 1.21744,1e-5 2.24934,0.44272 3.0957,1.32813 0.84634,0.88542 1.26952,2.03451 1.26953,3.44726 -1e-5,1.17839 -0.34181,2.22982 -1.02539,3.1543 -0.931,1.26302 -2.22331,1.89453 -3.87695,1.89453 -1.32162,0 -2.39909,-0.35482 -3.23243,-1.06445 -0.83333,-0.70964 -1.33138,-1.66341 -1.49414,-2.86133 z"
         id="path4236"
         inkscape:connector-curvature="0" />
    </g>
    <g
       style="font-size:20px;font-style:normal;font-variant:normal;font-weight:bold;font-stretch:normal;text-align:start;line-height:125%;letter-spacing:0px;word-spacing:0px;writing-mode:lr-tb;text-anchor:start;fill:#ffffff;fill-opacity:1;stroke:none;font-family:Arial;-inkscape-font-specification:Arial Bold"
       id="flowRoot4238">
      <path
         d="m 277.71216,274.85851 c 1.38671,10e-6 2.47069,0.49481 3.25195,1.48437 0.93098,1.17189 1.39648,3.11525 1.39649,5.83008 -10e-6,2.70834 -0.46876,4.65495 -1.40625,5.83985 -0.77475,0.97656 -1.85548,1.46484 -3.24219,1.46484 -1.39323,0 -2.51628,-0.53548 -3.36914,-1.60645 -0.85287,-1.07096 -1.2793,-2.98013 -1.2793,-5.72753 0,-2.69531 0.46875,-4.63541 1.40625,-5.82032 0.77474,-0.97655 1.85547,-1.46483 3.24219,-1.46484 z m 0,2.27539 c -0.33204,1e-5 -0.62826,0.10581 -0.88867,0.31738 -0.26042,0.2116 -0.46225,0.59083 -0.60547,1.1377 -0.18881,0.70964 -0.28321,1.9043 -0.28321,3.58398 0,1.6797 0.0846,2.83367 0.25391,3.46192 0.16927,0.62825 0.38248,1.04655 0.63965,1.25488 0.25716,0.20834 0.55175,0.3125 0.88379,0.3125 0.33202,0 0.62825,-0.10579 0.88867,-0.31738 0.26041,-0.21159 0.46223,-0.59082 0.60547,-1.1377 0.18879,-0.70312 0.2832,-1.89452 0.2832,-3.57422 0,-1.67968 -0.0846,-2.83365 -0.2539,-3.46191 -0.16928,-0.62825 -0.3825,-1.04817 -0.63965,-1.25977 -0.25717,-0.21157 -0.55177,-0.31737 -0.88379,-0.31738 z"
         id="path4249"
         inkscape:connector-curvature="0" />
      <path
         d="m 246.26703,247.81725 -2.74414,0 0,-10.3418 c -1.00261,0.93751 -2.18425,1.63087 -3.54492,2.08008 l 0,-2.49023 c 0.71614,-0.23437 1.49414,-0.6787 2.33398,-1.33301 0.83984,-0.65429 1.41601,-1.41763 1.72852,-2.29004 l 2.22656,0 z"
         id="path4251"
         inkscape:connector-curvature="0" />
      <path
         d="m 255.01703,233.44225 c 1.38671,1e-5 2.4707,0.49481 3.25195,1.48437 0.93098,1.17189 1.39648,3.11525 1.39649,5.83008 -1e-5,2.70834 -0.46876,4.65495 -1.40625,5.83985 -0.77475,0.97656 -1.85548,1.46484 -3.24219,1.46484 -1.39323,0 -2.51628,-0.53548 -3.36914,-1.60645 -0.85287,-1.07096 -1.2793,-2.98013 -1.2793,-5.72753 0,-2.69531 0.46875,-4.63541 1.40625,-5.82032 0.77474,-0.97655 1.85547,-1.46483 3.24219,-1.46484 z m 0,2.27539 c -0.33204,1e-5 -0.62826,0.10581 -0.88867,0.31738 -0.26042,0.2116 -0.46224,0.59083 -0.60547,1.1377 -0.18881,0.70964 -0.28321,1.9043 -0.2832,3.58398 -1e-5,1.6797 0.0846,2.83367 0.2539,3.46192 0.16927,0.62825 0.38249,1.04655 0.63965,1.25488 0.25716,0.20834 0.55175,0.3125 0.88379,0.3125 0.33203,0 0.62825,-0.10579 0.88867,-0.31738 0.26041,-0.21159 0.46224,-0.59082 0.60547,-1.1377 0.1888,-0.70312 0.2832,-1.89452 0.28321,-3.57422 -10e-6,-1.67968 -0.0846,-2.83365 -0.25391,-3.46191 -0.16928,-0.62825 -0.38249,-1.04817 -0.63965,-1.25977 -0.25717,-0.21157 -0.55176,-0.31737 -0.88379,-0.31738 z"
         id="path4253"
         inkscape:connector-curvature="0" />
      <path
         d="m 227.61251,169.24278 -2.74414,0 0,-10.3418 c -1.00261,0.93751 -2.18425,1.63087 -3.54492,2.08008 l 0,-2.49023 c 0.71614,-0.23437 1.49414,-0.6787 2.33398,-1.33301 0.83984,-0.65429 1.41601,-1.41763 1.72852,-2.29004 l 2.22656,0 z"
         id="path4255"
         inkscape:connector-curvature="0" />
      <path
         d="m 231.7629,165.56114 2.73438,-0.2832 c 0.0781,0.61849 0.30924,1.1084 0.69336,1.46972 0.38411,0.36133 0.82681,0.542 1.32812,0.54199 0.57291,1e-5 1.05794,-0.23274 1.45508,-0.69824 0.39713,-0.46549 0.59569,-1.16699 0.5957,-2.10449 -1e-5,-0.8789 -0.19695,-1.53808 -0.59082,-1.97754 -0.39388,-0.43944 -0.90658,-0.65917 -1.53808,-0.65918 -0.78777,1e-5 -1.49415,0.34832 -2.11914,1.04492 l -2.22657,-0.32226 1.40625,-7.45117 7.25586,0 0,2.56836 -5.17578,0 -0.42969,2.43164 c 0.61198,-0.30598 1.23698,-0.45898 1.875,-0.45899 1.21744,1e-5 2.24934,0.44272 3.09571,1.32813 0.84634,0.88542 1.26952,2.03451 1.26953,3.44726 -1e-5,1.17839 -0.34181,2.22982 -1.02539,3.1543 -0.931,1.26302 -2.22332,1.89453 -3.87696,1.89453 -1.32161,0 -2.39909,-0.35482 -3.23242,-1.06445 -0.83333,-0.70964 -1.33138,-1.66341 -1.49414,-2.86133 z"
         id="path4257"
         inkscape:connector-curvature="0" />
      <path
         d="m 266.2574,69.501881 0,2.54883 -9.61914,0 c 0.10417,-0.96354 0.41667,-1.87663 0.9375,-2.73926 0.52084,-0.86262 1.54948,-2.00683 3.08594,-3.43262 1.23698,-1.15233 1.99544,-1.93358 2.27539,-2.34375 0.3776,-0.56639 0.5664,-1.12629 0.56641,-1.67968 -10e-6,-0.61197 -0.1644,-1.08235 -0.49317,-1.41114 -0.32878,-0.32876 -0.78288,-0.49315 -1.3623,-0.49316 -0.57292,10e-6 -1.02865,0.17254 -1.36719,0.51758 -0.33854,0.34506 -0.53386,0.91798 -0.58594,1.71875 l -2.73437,-0.27344 c 0.16276,-1.5104 0.67383,-2.59439 1.5332,-3.25195 0.85937,-0.65754 1.93359,-0.98632 3.22266,-0.98633 1.41275,1e-5 2.52278,0.38087 3.33008,1.14258 0.80728,0.76173 1.21092,1.70899 1.21093,2.84179 -1e-5,0.64455 -0.11556,1.25815 -0.34667,1.84082 -0.23113,0.5827 -0.59734,1.19305 -1.09864,1.83106 -0.33204,0.42318 -0.93099,1.03191 -1.79687,1.82617 -0.86589,0.79428 -1.4144,1.32162 -1.64551,1.58203 -0.23113,0.26042 -0.4183,0.51433 -0.56152,0.76172 z"
         id="path4259"
         inkscape:connector-curvature="0" />
      <path
         d="m 272.76131,57.675711 c 1.38671,1e-5 2.4707,0.49481 3.25195,1.48437 0.93098,1.17189 1.39648,3.11525 1.39649,5.83008 -10e-6,2.70834 -0.46876,4.65495 -1.40625,5.83985 -0.77475,0.97656 -1.85548,1.46484 -3.24219,1.46484 -1.39323,0 -2.51628,-0.53548 -3.36914,-1.60645 -0.85287,-1.07096 -1.2793,-2.98013 -1.2793,-5.72753 0,-2.69531 0.46875,-4.63541 1.40625,-5.82032 0.77474,-0.97655 1.85547,-1.46483 3.24219,-1.46484 z m 0,2.27539 c -0.33204,10e-6 -0.62826,0.10581 -0.88867,0.31738 -0.26042,0.2116 -0.46224,0.59083 -0.60547,1.1377 -0.18881,0.70964 -0.28321,1.9043 -0.2832,3.58398 -10e-6,1.6797 0.0846,2.83367 0.2539,3.46192 0.16927,0.62825 0.38249,1.04655 0.63965,1.25488 0.25716,0.20834 0.55175,0.3125 0.88379,0.3125 0.33203,0 0.62825,-0.10579 0.88867,-0.31738 0.26041,-0.21159 0.46224,-0.59082 0.60547,-1.1377 0.1888,-0.70312 0.2832,-1.89452 0.2832,-3.57422 0,-1.67968 -0.0846,-2.83365 -0.2539,-3.46191 -0.16928,-0.62825 -0.38249,-1.04817 -0.63965,-1.25977 -0.25717,-0.21157 -0.55176,-0.31737 -0.88379,-0.31738 z"
         id="path4261"
         inkscape:connector-curvature="0" />
    </g>
    <flowRoot
       xml:space="preserve"
       id="flowRoot4271"
       style="font-size:24px;font-style:normal;font-variant:normal;font-weight:bold;font-stretch:normal;text-align:start;line-height:125%;letter-spacing:0px;word-spacing:0px;writing-mode:lr-tb;text-anchor:start;fill:#ffffff;fill-opacity:1;stroke:none;font-family:Arial;-inkscape-font-specification:Arial Bold"
       transform="translate(-11.111678,0)"><flowRegion
         id="flowRegion4273"><rect
           id="rect4275"
           width="54.548237"
           height="72.73098"
           x="249.50768"
           y="124.03199"
           style="font-size:24px;font-style:normal;font-variant:normal;font-weight:bold;font-stretch:normal;text-align:start;line-height:125%;writing-mode:lr-tb;text-anchor:start;fill:#ffffff;fill-opacity:1;font-family:Arial;-inkscape-font-specification:Arial Bold" /></flowRegion><flowPara
         id="flowPara4279">GPH</flowPara></flowRoot>  </g>
</svg>
